<svg xmlns="http://www.w3.org/2000/svg" xmlns:v="https://svgstorm.com"
viewBox = "0 0 512 512"
width="512"
height="512">
<g fill="#000000" fill-opacity="1.00" stroke="None"><path d="
M 0.00 512.00 
L 512.00 512.00
L 512.00 0.00
L 0.00 0.00
L 0.00 512.00 Z"/>
</g>
<g fill="#066632" fill-opacity="1.00" stroke="None"><path d="
M 126.00 189.00 
C 128.60 188.80 132.07 188.19 134.00 188.00
C 131.07 188.00 128.30 188.56 126.00 189.00 Z"/>
</g>
<g fill="#0EEC88" fill-opacity="1.00" stroke="None"><path d="
M 126.00 189.00 
C 123.89 189.14 120.77 188.29 120.00 191.00
C 128.91 194.91 134.18 204.02 142.75 208.25 C 151.33 212.48 155.70 222.60 166.00 224.00 C 176.30 225.40 186.22 219.40 196.30 215.30 C 206.39 211.21 205.45 199.61 194.02 195.98 C 182.60 192.34 174.11 189.46 162.00 189.00
C 159.30 188.90 155.99 188.19 154.00 188.00
C 147.33 188.00 140.67 188.00 134.00 188.00
C 132.07 188.19 128.60 188.80 126.00 189.00 Z"/>
</g>
<g fill="#147F47" fill-opacity="1.00" stroke="None"><path d="
M 162.00 189.00 
C 159.83 188.69 156.87 188.00 154.00 188.00
C 155.99 188.19 159.30 188.90 162.00 189.00 Z"/>
</g>
<g fill="#0DDD81" fill-opacity="1.00" stroke="None"><path d="
M 368.00 219.00 
C 369.25 220.23 370.51 220.44 372.00 221.00
C 385.44 226.07 396.90 222.42 399.00 207.00 C 401.10 191.58 386.18 185.41 373.68 188.68 C 361.18 191.95 361.00 212.10 368.00 219.00 Z"/>
</g>
<g fill="#0DF181" fill-opacity="1.00" stroke="None"><path d="
M 153.00 226.00 
C 140.84 214.24 128.05 207.20 114.25 195.75 C 100.44 184.30 72.01 207.90 93.93 217.07 C 115.85 226.25 129.69 225.31 153.00 226.00 Z"/>
</g>
<g fill="#0DE782" fill-opacity="1.00" stroke="None"><path d="
M 324.00 241.00 
C 325.14 239.26 326.23 239.20 327.00 237.00
C 327.88 234.49 327.85 231.69 328.00 229.00
C 328.14 226.44 328.26 223.55 328.00 221.00
C 324.68 206.00 299.07 202.14 294.00 220.00 C 288.93 237.86 309.66 249.10 324.00 241.00 Z"/>
</g>
<g fill="#FAFAFA" fill-opacity="1.00" stroke="None"><path d="
M 120.00 240.00 
C 121.69 240.17 123.91 240.85 125.00 241.00
C 135.55 241.54 146.55 243.11 157.00 241.00
C 157.00 237.67 157.00 234.33 157.00 231.00
C 152.22 231.50 147.93 232.00 143.00 232.00
C 138.55 232.00 133.72 231.45 130.00 231.00
C 113.81 229.33 95.24 227.82 84.00 215.00
C 81.14 233.81 106.07 238.57 120.00 240.00 Z"/>
</g>
<g fill="#48BCDE" fill-opacity="1.00" stroke="None"><path d="
M 205.00 215.00 
C 194.44 225.03 178.69 229.01 164.00 230.00
C 164.00 233.33 164.00 236.67 164.00 240.00
C 179.27 238.32 206.40 235.70 205.00 215.00 Z"/>
</g>
<g fill="#45B5E2" fill-opacity="1.00" stroke="None"><path d="
M 248.00 231.00 
C 248.41 232.67 250.91 233.69 251.00 234.00
C 251.03 234.02 252.00 234.90 252.00 240.00
C 252.00 245.98 253.49 251.73 254.00 257.00
C 254.05 254.67 253.96 252.33 254.00 250.00
C 255.67 250.24 254.17 252.85 256.00 253.00
C 255.47 246.93 255.10 240.98 255.00 235.00
C 254.76 233.01 254.99 229.75 255.00 228.00
C 254.84 226.27 253.50 216.77 250.31 219.31 C 247.11 221.85 248.48 227.64 248.00 231.00 Z"/>
</g>
<g fill="#21C2A2" fill-opacity="1.00" stroke="None"><path d="
M 366.00 224.00 
C 367.94 223.04 369.39 224.24 371.00 223.00
C 371.08 222.88 372.03 221.11 372.00 221.00
C 370.51 220.44 369.25 220.23 368.00 219.00
C 368.01 219.69 366.36 223.46 366.00 224.00 Z"/>
</g>
<g fill="#1A784C" fill-opacity="1.00" stroke="None"><path d="
M 328.00 229.00 
C 328.46 226.14 328.66 223.97 328.00 221.00
C 328.26 223.55 328.14 226.44 328.00 229.00 Z"/>
</g>
<g fill="#32C0C2" fill-opacity="1.00" stroke="None"><path d="
M 366.00 224.00 
C 364.03 226.95 359.96 232.77 357.00 235.00
C 358.90 234.70 359.81 233.64 361.00 236.00
C 362.90 231.57 368.31 227.41 371.00 223.00
C 369.39 224.24 367.94 223.04 366.00 224.00 Z"/>
</g>
<g fill="#22586D" fill-opacity="1.00" stroke="None"><path d="
M 255.00 235.00 
C 254.96 232.69 255.21 230.30 255.00 228.00
C 254.99 229.75 254.76 233.01 255.00 235.00 Z"/>
</g>
<g fill="#656565" fill-opacity="1.00" stroke="None"><path d="
M 143.00 232.00 
C 139.35 231.65 134.38 231.09 130.00 231.00
C 133.72 231.45 138.55 232.00 143.00 232.00 Z"/>
</g>
<g fill="#48B6E3" fill-opacity="1.00" stroke="None"><path d="
M 205.00 231.00 
C 193.85 241.38 178.64 244.62 164.00 246.00
C 164.00 249.33 164.00 252.67 164.00 256.00
C 179.78 254.49 205.98 251.61 205.00 231.00 Z"/>
</g>
<g fill="#3FA4E4" fill-opacity="1.00" stroke="None"><path d="
M 244.00 262.00 
C 243.84 263.31 244.12 264.68 244.00 266.00
C 242.65 265.27 243.04 263.17 242.00 262.00
C 240.61 257.55 241.41 254.53 238.75 250.26 C 236.08 245.99 233.22 255.12 232.00 256.00
C 228.04 258.86 221.05 254.71 217.00 257.00
C 216.45 261.69 235.74 262.72 236.00 255.00
C 238.81 261.27 242.70 284.19 246.22 270.22 C 249.74 256.25 247.22 249.44 250.00 236.00
C 250.13 235.35 251.21 234.72 251.00 234.00
C 250.91 233.69 248.41 232.67 248.00 231.00
C 246.59 240.88 245.23 251.65 244.00 262.00 Z"/>
</g>
<g fill="#F8F8F8" fill-opacity="1.00" stroke="None"><path d="
M 157.00 247.00 
C 131.97 249.15 103.68 247.50 84.00 232.00
C 82.46 248.36 99.26 251.60 112.33 254.67 C 125.40 257.75 142.92 259.60 157.00 258.00
C 157.00 254.33 157.00 250.67 157.00 247.00 Z"/>
</g>
<g fill="#1F4D63" fill-opacity="1.00" stroke="None"><path d="
M 251.00 234.00 
C 251.21 234.72 250.13 235.35 250.00 236.00
C 249.97 236.36 251.90 239.50 252.00 240.00
C 252.00 234.90 251.03 234.02 251.00 234.00 Z"/>
</g>
<g fill="#33B9DD" fill-opacity="1.00" stroke="None"><path d="
M 357.00 235.00 
C 353.89 235.48 346.63 234.97 342.00 235.00 C 337.37 235.03 329.68 234.87 327.00 237.00
C 326.23 239.20 325.14 239.26 324.00 241.00
C 319.80 247.43 320.31 258.17 322.00 265.00
C 321.92 262.72 322.49 261.11 323.00 259.00
C 336.60 259.63 348.64 248.94 362.00 245.00
C 361.08 242.01 359.75 238.90 361.00 236.00
C 359.81 233.64 358.90 234.70 357.00 235.00 Z"/>
</g>
<g fill="#001125" fill-opacity="1.00" stroke="None"><path d="
M 408.00 239.00 
C 411.75 238.65 415.51 239.14 419.00 240.00
C 414.81 238.40 412.44 238.06 408.00 239.00 Z"/>
</g>
<g fill="#2CA4E9" fill-opacity="1.00" stroke="None"><path d="
M 393.00 254.00 
C 390.47 256.25 382.60 255.21 379.00 255.00 C 375.40 254.79 366.38 256.62 364.00 254.00
C 363.20 253.12 362.36 246.16 362.00 245.00
C 348.64 248.94 336.60 259.63 323.00 259.00
C 322.49 261.11 321.92 262.72 322.00 265.00
C 322.70 267.84 323.21 270.51 325.00 273.00
C 326.01 274.41 326.48 274.05 327.00 276.00
C 329.15 277.76 338.98 279.02 342.00 279.00 C 345.01 278.97 354.69 278.75 357.00 278.00
C 356.50 278.16 360.43 275.46 360.00 276.00
C 359.58 270.91 365.13 265.41 364.00 259.00
C 373.67 259.00 383.33 259.00 393.00 259.00
C 393.70 265.79 396.03 269.78 402.00 273.00
C 407.07 274.90 415.90 274.79 421.00 273.00
C 432.88 266.93 432.35 243.31 419.00 240.00
C 415.51 239.14 411.75 238.65 408.00 239.00
C 403.87 239.39 400.49 240.72 397.25 243.25 C 394.02 245.79 395.53 251.75 393.00 254.00 Z"/>
</g>
<g fill="#7D7D7D" fill-opacity="1.00" stroke="None"><path d="
M 125.00 241.00 
C 123.91 240.85 121.69 240.17 120.00 240.00
C 121.39 240.30 123.00 240.92 125.00 241.00 Z"/>
</g>
<g fill="#3B9BE1" fill-opacity="1.00" stroke="None"><path d="
M 259.00 276.00 
C 258.65 277.59 259.26 279.39 259.00 281.00
C 256.87 278.57 258.53 274.18 258.00 271.00
C 258.00 264.71 256.53 259.00 256.00 253.00
C 254.17 252.85 255.67 250.24 254.00 250.00
C 253.96 252.33 254.05 254.67 254.00 257.00
C 253.94 260.00 254.00 263.00 254.00 266.00
C 254.20 268.10 255.00 271.23 255.00 274.00
C 255.87 280.67 254.64 285.47 257.03 291.97 C 259.41 298.47 262.36 288.82 262.02 284.02 C 261.69 279.23 264.94 273.15 265.00 268.00 C 265.06 262.85 265.01 255.46 267.00 251.00
C 268.34 256.69 268.35 261.00 270.25 266.75 C 272.15 272.50 278.98 263.24 278.00 260.00
C 284.53 257.30 292.53 263.63 298.91 259.92 C 305.30 256.20 290.05 256.00 287.00 256.00
C 285.22 256.17 279.01 256.21 277.00 257.00
C 274.78 258.29 274.41 261.15 273.00 263.00
C 273.51 257.32 266.38 235.89 264.00 247.00 C 261.62 258.11 261.26 265.68 259.00 276.00 Z"/>
</g>
<g fill="#F9F9F9" fill-opacity="1.00" stroke="None"><path d="
M 85.00 247.00 
C 80.59 262.26 97.99 267.92 111.00 271.00 C 124.01 274.08 143.17 274.49 157.00 274.00
C 157.00 270.33 157.00 266.67 157.00 263.00
C 132.79 264.12 102.06 265.29 85.00 247.00 Z"/>
</g>
<g fill="#44B1E5" fill-opacity="1.00" stroke="None"><path d="
M 205.00 247.00 
C 194.60 257.13 178.80 261.36 164.00 262.00
C 164.00 265.67 164.00 269.33 164.00 273.00
C 179.28 269.39 206.41 268.18 205.00 247.00 Z"/>
</g>
<g fill="#000C1F" fill-opacity="1.00" stroke="None"><path d="
M 393.00 254.00 
C 383.33 254.00 373.67 254.00 364.00 254.00
C 366.38 256.62 375.40 254.79 379.00 255.00 C 382.60 255.21 390.47 256.25 393.00 254.00 Z"/>
</g>
<g fill="#164566" fill-opacity="1.00" stroke="None"><path d="
M 217.00 257.00 
C 221.05 254.71 228.04 258.86 232.00 256.00
C 227.95 258.00 220.39 253.61 217.00 257.00 Z"/>
</g>
<g fill="#001128" fill-opacity="1.00" stroke="None"><path d="
M 277.00 257.00 
C 279.01 256.21 285.22 256.17 287.00 256.00
C 283.64 256.00 279.66 255.44 277.00 257.00 Z"/>
</g>
<g fill="#00132E" fill-opacity="1.00" stroke="None"><path d="
M 244.00 262.00 
C 243.95 262.14 242.17 262.24 242.00 262.00
C 243.04 263.17 242.65 265.27 244.00 266.00
C 244.12 264.68 243.84 263.31 244.00 262.00 Z"/>
</g>
<g fill="#42AAE7" fill-opacity="1.00" stroke="None"><path d="
M 205.00 263.00 
C 194.39 272.95 178.93 277.53 164.00 278.00
C 164.00 281.67 164.00 285.33 164.00 289.00
C 178.96 285.62 206.68 284.60 205.00 263.00 Z"/>
</g>
<g fill="#FAFAFA" fill-opacity="1.00" stroke="None"><path d="
M 126.00 289.00 
C 128.70 289.10 132.01 289.81 134.00 290.00
C 141.82 289.64 149.74 290.60 157.00 290.00
C 157.00 286.33 157.00 282.67 157.00 279.00
C 131.99 281.05 103.51 279.84 84.00 264.00
C 81.17 274.81 90.66 280.05 98.92 283.08 C 107.19 286.10 116.94 288.65 126.00 289.00 Z"/>
</g>
<g fill="#103A5D" fill-opacity="1.00" stroke="None"><path d="
M 255.00 274.00 
C 255.00 271.23 254.20 268.10 254.00 266.00
C 254.00 268.77 254.80 271.90 255.00 274.00 Z"/>
</g>
<g fill="#214F77" fill-opacity="1.00" stroke="None"><path d="
M 259.00 276.00 
C 259.01 274.11 258.17 272.25 258.00 271.00
C 258.53 274.18 256.87 278.57 259.00 281.00
C 259.26 279.39 258.65 277.59 259.00 276.00 Z"/>
</g>
<g fill="#116645" fill-opacity="1.00" stroke="None"><path d="
M 307.00 272.00 
C 310.13 271.68 313.87 271.72 317.00 272.00
C 313.53 271.28 310.54 271.22 307.00 272.00 Z"/>
</g>
<g fill="#16C796" fill-opacity="1.00" stroke="None"><path d="
M 294.00 285.00 
C 293.77 287.52 293.77 290.48 294.00 293.00
C 296.49 305.03 308.69 308.82 319.92 304.92 C 331.15 301.02 329.14 284.11 327.00 276.00
C 326.48 274.05 326.01 274.41 325.00 273.00
C 323.84 272.38 319.00 272.41 317.00 272.00
C 313.87 271.72 310.13 271.68 307.00 272.00
C 298.67 273.85 295.73 276.66 294.00 285.00 Z"/>
</g>
<g fill="#00132A" fill-opacity="1.00" stroke="None"><path d="
M 421.00 273.00 
C 415.90 274.79 407.07 274.90 402.00 273.00
C 407.49 275.96 415.45 275.84 421.00 273.00 Z"/>
</g>
<g fill="#2392ED" fill-opacity="1.00" stroke="None"><path d="
M 357.00 278.00 
C 358.69 284.64 365.53 288.60 368.00 295.00
C 362.93 301.81 361.15 318.56 370.77 323.23 C 380.39 327.90 393.63 326.01 398.00 316.00
C 399.38 311.31 399.14 305.73 398.00 301.00
C 396.40 289.10 380.30 289.89 371.00 292.00
C 369.06 286.06 361.88 281.68 360.00 276.00
C 360.43 275.46 356.50 278.16 357.00 278.00 Z"/>
</g>
<g fill="#3A9CEB" fill-opacity="1.00" stroke="None"><path d="
M 205.00 279.00 
C 194.56 289.88 178.43 292.61 164.00 295.00
C 164.00 298.33 164.00 301.67 164.00 305.00
C 179.07 301.76 206.44 300.43 205.00 279.00 Z"/>
</g>
<g fill="#0FE781" fill-opacity="1.00" stroke="None"><path d="
M 125.00 295.00 
C 123.02 294.89 121.37 294.30 120.00 294.00
C 107.15 292.44 93.44 288.94 84.00 280.00
C 82.69 295.78 98.12 299.43 111.00 303.00 C 123.88 306.57 142.75 306.21 157.00 306.00
C 157.00 302.33 157.00 298.67 157.00 295.00
C 146.63 297.24 135.45 295.57 125.00 295.00 Z"/>
</g>
<g fill="#0C593E" fill-opacity="1.00" stroke="None"><path d="
M 294.00 293.00 
C 293.77 290.48 293.77 287.52 294.00 285.00
C 293.39 287.93 293.38 290.01 294.00 293.00 Z"/>
</g>
<g fill="#7B7B7B" fill-opacity="1.00" stroke="None"><path d="
M 134.00 290.00 
C 132.01 289.81 128.70 289.10 126.00 289.00
C 128.17 289.31 131.13 290.00 134.00 290.00 Z"/>
</g>
<g fill="#106F3E" fill-opacity="1.00" stroke="None"><path d="
M 125.00 295.00 
C 123.85 294.82 121.74 294.18 120.00 294.00
C 121.37 294.30 123.02 294.89 125.00 295.00 Z"/>
</g>
<g fill="#3698EC" fill-opacity="1.00" stroke="None"><path d="
M 205.00 295.00 
C 194.12 305.94 178.72 308.75 164.00 311.00
C 164.00 314.33 164.00 317.67 164.00 321.00
C 179.46 318.58 206.56 315.97 205.00 295.00 Z"/>
</g>
<g fill="#0DE481" fill-opacity="1.00" stroke="None"><path d="
M 157.00 312.00 
C 131.47 311.83 103.95 312.90 84.00 296.00
C 82.01 312.04 99.00 315.89 111.78 319.22 C 124.56 322.56 143.29 323.51 157.00 322.00
C 157.00 318.67 157.00 315.33 157.00 312.00 Z"/>
</g>
<g fill="#000B24" fill-opacity="1.00" stroke="None"><path d="
M 398.00 316.00 
C 400.34 310.65 399.99 306.38 398.00 301.00
C 399.14 305.73 399.38 311.31 398.00 316.00 Z"/>
</g>
</svg>